<?xml version="1.0" standalone="no"?>
<!DOCTYPE svg PUBLIC "-//W3C//DTD SVG 20010904//EN"
 "http://www.w3.org/TR/2001/REC-SVG-20010904/DTD/svg10.dtd">
<svg version="1.0" xmlns="http://www.w3.org/2000/svg"
 width="403.000000pt" height="88.000000pt" viewBox="0 0 403.000000 88.000000"
 preserveAspectRatio="xMidYMid meet">

<g transform="translate(0.000000,88.000000) scale(0.100000,-0.100000)"
fill="#000000" stroke="none">
<path d="M1726 680 c-111 -24 -220 -56 -268 -81 -44 -23 -50 -52 -17 -88 17
-18 28 -21 58 -17 20 4 113 10 208 16 181 10 223 21 266 68 27 30 18 53 -38
89 -58 38 -81 40 -209 13z"/>
<path d="M1104 662 c-105 -77 -43 -139 189 -188 39 -8 85 -11 104 -8 l35 7
-26 24 c-40 37 -35 76 15 112 l40 30 -43 11 c-24 6 -59 15 -78 21 -19 5 -71
12 -115 15 -78 6 -81 5 -121 -24z"/>
<path d="M500 600 c8 -6 55 -31 104 -56 l90 -44 152 0 c123 0 156 3 168 15 13
14 12 18 -12 42 -33 33 -74 39 -332 48 -140 5 -181 4 -170 -5z"/>
<path d="M2032 563 c34 -4 37 -7 40 -41 3 -37 3 -37 50 -38 47 -1 47 -1 50 35
3 32 6 37 38 42 19 4 -21 6 -90 6 -69 0 -108 -2 -88 -4z"/>
<path d="M2270 525 l0 -45 50 0 50 0 0 45 0 45 -50 0 -50 0 0 -45z"/>
<path d="M2444 562 c-6 -4 -14 -16 -18 -28 -11 -36 17 -49 113 -49 91 0 141 9
141 25 0 17 -92 12 -111 -6 -23 -21 -39 -10 -39 27 0 22 5 29 19 29 11 0 23
-4 26 -10 8 -12 105 -13 105 -1 0 5 -7 12 -16 15 -22 9 -207 7 -220 -2z"/>
<path d="M2728 529 c-2 -22 -2 -42 1 -45 2 -2 24 -4 49 -4 35 0 45 4 49 20 6
24 11 25 35 3 12 -11 39 -18 71 -20 l52 -2 -34 28 -35 28 30 16 29 16 -46 1
c-25 0 -54 -7 -65 -15 -25 -19 -34 -19 -34 0 0 11 -12 15 -49 15 l-49 0 -4
-41z"/>
<path d="M3010 527 l0 -42 90 -3 c50 -1 92 3 95 8 4 6 -12 10 -39 10 -25 0
-46 5 -46 10 0 6 16 10 35 10 19 0 35 5 35 10 0 6 -16 10 -35 10 -50 0 -44 18
8 23 23 2 0 4 -50 5 l-93 2 0 -43z"/>
<path d="M3250 555 c0 -11 17 -15 73 -17 l72 -3 3 -82 3 -83 119 0 119 0 3 83
3 82 73 3 c55 2 72 6 72 17 0 13 -40 15 -270 15 -230 0 -270 -2 -270 -15z"/>
<path d="M532 470 c-148 -13 -268 -32 -245 -41 26 -10 250 -36 373 -45 68 -4
119 -1 180 10 85 15 302 35 414 37 l61 1 -65 13 c-158 32 -493 43 -718 25z"/>
<path d="M2390 431 c-29 -5 -35 -10 -35 -31 0 -25 1 -25 93 -28 77 -2 92 0 92
13 0 11 -11 15 -46 15 -27 0 -43 -4 -39 -10 3 -5 -1 -10 -9 -10 -9 0 -16 8
-16 19 0 23 16 36 25 21 3 -5 25 -10 48 -10 24 0 37 4 32 9 -14 13 -103 20
-145 12z"/>
<path d="M1450 400 c0 -28 3 -30 35 -30 29 0 35 4 36 23 l0 22 16 -22 c20 -29
57 -29 77 -1 l16 22 0 -22 c0 -19 5 -22 35 -22 32 0 35 2 35 30 0 30 -1 30
-54 30 -42 0 -55 -4 -61 -17 -6 -17 -7 -17 -16 0 -8 13 -23 17 -64 17 -54 0
-55 0 -55 -30z"/>
<path d="M1737 401 l-17 -29 95 0 95 1 -17 28 c-16 27 -22 29 -78 29 -56 0
-62 -2 -78 -29z m93 -2 c0 -5 -7 -9 -15 -9 -15 0 -20 12 -9 23 8 8 24 -1 24
-14z"/>
<path d="M1940 400 c0 -26 3 -30 29 -30 16 0 31 5 33 11 3 9 9 9 25 0 12 -6
35 -11 52 -11 28 0 31 3 31 30 0 26 -3 30 -29 30 -16 0 -31 -5 -33 -11 -3 -9
-9 -9 -25 0 -12 6 -35 11 -52 11 -28 0 -31 -3 -31 -30z"/>
<path d="M2157 401 l-17 -28 95 0 c97 0 100 1 67 40 -11 12 -30 17 -71 17 -52
0 -58 -3 -74 -29z m93 -2 c0 -5 -7 -9 -15 -9 -15 0 -20 12 -9 23 8 8 24 -1 24
-14z"/>
<path d="M2570 400 l0 -30 73 1 c56 1 64 3 37 9 -27 5 -31 8 -18 14 9 4 22 5
28 1 5 -3 10 -1 10 4 0 6 -12 12 -27 12 -25 2 -24 2 7 9 28 6 21 8 -37 9 l-73
1 0 -30z"/>
<path d="M2730 400 c0 -28 3 -30 35 -30 29 0 35 4 36 23 l0 22 16 -22 c10 -14
26 -23 43 -23 18 0 30 7 38 23 l11 22 0 -22 c1 -19 7 -23 36 -23 32 0 35 2 35
30 0 30 -1 30 -54 30 -42 0 -55 -4 -61 -17 -6 -17 -7 -17 -16 0 -8 13 -23 17
-64 17 -54 0 -55 0 -55 -30z"/>
<path d="M3020 400 l0 -30 73 1 c56 1 64 3 37 9 -34 6 -32 9 10 23 8 3 2 6
-15 8 l-30 2 35 7 c28 6 21 8 -37 9 l-73 1 0 -30z"/>
<path d="M3185 400 c0 -27 3 -30 32 -30 17 0 33 6 36 13 4 10 7 10 18 0 7 -7
30 -13 51 -13 36 0 38 2 38 30 0 26 -3 30 -29 30 -16 0 -31 -5 -33 -11 -3 -9
-9 -9 -25 0 -12 6 -37 11 -55 11 -30 0 -33 -3 -33 -30z"/>
<path d="M960 389 c-151 -19 -286 -63 -319 -102 -17 -21 -21 -21 191 -7 150
10 160 12 223 45 37 19 73 35 81 35 8 0 14 4 14 10 0 5 7 7 15 4 8 -4 15 -2
15 3 0 5 -9 9 -20 10 -11 1 -20 -2 -20 -7 0 -5 -7 -7 -16 -3 -13 5 -13 7 -2
14 18 12 5 11 -26 -1 -17 -6 -26 -6 -26 0 0 11 -17 11 -110 -1z"/>
<path d="M1220 351 c-172 -56 -186 -78 -90 -136 l60 -37 101 26 c158 41 239
82 227 117 -5 14 -119 49 -178 55 -21 2 -70 -8 -120 -25z"/>
</g>
</svg>
