<?xml version="1.0" standalone="no"?>
<!DOCTYPE svg PUBLIC "-//W3C//DTD SVG 20010904//EN"
 "http://www.w3.org/TR/2001/REC-SVG-20010904/DTD/svg10.dtd">
<svg version="1.0" xmlns="http://www.w3.org/2000/svg"
 width="600.000000pt" height="600.000000pt" viewBox="0 0 600.000000 600.000000"
 preserveAspectRatio="xMidYMid meet">

<g transform="translate(0.000000,600.000000) scale(0.100000,-0.100000)"
fill="#000000" stroke="none">
<path d="M2760 4790 c0 -5 -6 -10 -13 -10 -8 0 -22 -9 -32 -20 -10 -11 -21
-20 -26 -20 -11 0 -66 -48 -153 -135 -90 -90 -115 -118 -169 -190 -20 -27 -40
-54 -45 -60 -4 -5 -19 -28 -32 -50 -13 -22 -26 -42 -29 -45 -7 -6 -25 -39 -86
-157 -52 -100 -56 -128 -56 -341 0 -159 5 -207 33 -332 19 -81 31 -97 60 -83
12 7 46 21 73 33 28 12 59 25 70 30 43 18 146 50 164 50 11 0 22 4 25 8 3 5
54 15 113 22 59 7 113 17 119 21 15 12 104 192 104 211 0 8 4 18 9 23 10 11
42 118 62 210 22 96 17 343 -8 435 -24 85 -102 310 -113 325 -4 6 -10 27 -14
48 -6 31 -11 37 -31 37 -14 0 -25 -4 -25 -10z"/>
<path d="M1702 4678 c-105 -217 -154 -536 -122 -793 11 -86 35 -195 50 -224 5
-9 18 -40 30 -69 59 -148 203 -331 342 -436 l38 -28 45 48 c42 46 45 52 40 91
-2 24 -9 51 -14 60 -24 46 -45 183 -55 358 -5 83 11 266 30 350 20 87 72 243
91 272 14 20 13 26 -8 60 -27 45 -75 109 -115 155 -76 86 -259 218 -303 218
-12 0 -28 -20 -49 -62z"/>
<path d="M710 4165 c0 -8 87 -238 127 -335 19 -47 38 -94 43 -105 26 -66 100
-219 137 -285 l20 -35 159 -6 c209 -8 329 -38 504 -123 132 -63 129 -62 105
-39 -49 48 -187 234 -224 303 -36 68 -80 219 -97 339 l-18 121 -76 39 c-100
51 -266 96 -427 115 -130 16 -253 21 -253 11z"/>
<path d="M3711 3912 c-85 -33 -100 -79 -101 -298 0 -229 16 -285 91 -318 46
-20 156 -21 196 -1 16 8 42 29 58 47 26 29 29 41 33 121 l4 88 -78 -3 -79 -3
-5 -80 c-5 -73 -7 -80 -27 -83 -32 -5 -34 14 -31 238 l3 195 27 3 27 3 3 -88
3 -88 75 0 75 0 0 97 c0 96 0 97 -34 132 -53 55 -154 71 -240 38z"/>
<path d="M2997 3914 c-4 -4 -7 -33 -7 -65 l0 -58 48 -3 47 -3 3 -253 2 -253
73 3 72 3 3 253 2 252 51 0 50 0 -3 63 -3 62 -166 3 c-91 1 -168 -1 -172 -4z"/>
<path d="M3380 3600 l0 -320 75 0 75 0 0 320 0 320 -75 0 -75 0 0 -320z"/>
<path d="M4065 3908 c-3 -7 -4 -150 -3 -318 l3 -305 75 0 75 0 5 130 5 130 18
-65 c29 -107 51 -174 60 -187 6 -8 35 -13 79 -13 61 0 69 2 64 18 -3 9 -8 34
-12 55 -3 20 -10 40 -15 43 -5 3 -9 13 -9 23 0 21 -37 149 -51 173 -11 22 -12
65 0 72 5 3 12 22 16 42 3 20 10 44 15 53 9 18 50 143 50 154 0 13 -127 8
-138 -5 -5 -7 -13 -28 -17 -46 -4 -18 -13 -45 -21 -60 -8 -15 -14 -34 -14 -43
0 -9 -7 -29 -15 -45 -13 -27 -14 -21 -17 86 l-3 115 -73 3 c-52 2 -74 -1 -77
-10z"/>
<path d="M4485 3908 c-3 -7 -4 -150 -3 -318 l3 -305 135 0 135 0 0 65 0 65
-57 3 -58 3 0 64 0 65 50 0 50 0 0 60 0 60 -50 0 -50 0 0 59 0 60 53 3 52 3 0
60 0 60 -128 3 c-97 2 -129 0 -132 -10z"/>
<path d="M4847 3913 c-4 -3 -7 -66 -7 -139 l0 -133 108 -3 107 -3 3 -567 2
-568 185 0 185 0 2 568 3 567 108 3 108 3 -3 137 -3 137 -396 3 c-217 1 -398
-1 -402 -5z"/>
<path d="M960 3253 c-41 -8 -83 -18 -92 -24 -10 -5 -25 -9 -34 -9 -18 0 -46
-12 -179 -75 -49 -24 -101 -53 -115 -64 -36 -30 -42 -34 -71 -53 -31 -20 -89
-76 -89 -87 0 -14 196 -153 267 -189 23 -11 50 -26 60 -31 10 -6 41 -20 68
-31 28 -12 59 -25 70 -30 18 -9 105 -37 180 -59 17 -5 49 -12 72 -16 40 -6 45
-4 81 32 84 85 164 137 297 193 28 11 57 24 65 29 9 5 31 12 50 16 19 4 40 10
45 14 14 8 115 30 200 43 116 17 115 16 115 43 0 63 -199 193 -415 273 -102
37 -436 52 -575 25z"/>
<path d="M2164 2961 c-2 -2 -4 -110 -4 -238 l0 -234 53 3 52 3 5 135 c5 143
10 139 30 -30 5 -47 12 -91 15 -97 5 -15 61 -18 69 -4 3 5 8 42 12 82 3 41 11
94 17 118 11 42 12 38 17 -80 l5 -124 50 0 50 0 3 233 c1 152 -1 232 -8 233
-67 3 -133 -1 -144 -10 -8 -7 -16 -45 -20 -101 -4 -50 -11 -90 -16 -90 -4 0
-11 35 -15 78 -10 114 -17 123 -99 125 -37 1 -70 0 -72 -2z"/>
<path d="M2622 2955 c-4 -5 -12 -53 -19 -105 -12 -96 -39 -298 -45 -335 -3
-18 3 -20 54 -23 l57 -3 3 43 c3 40 5 43 33 43 27 0 30 -3 30 -30 0 -46 11
-55 67 -55 l51 0 -7 83 c-4 45 -11 96 -16 112 -5 17 -14 68 -20 115 -21 152
-22 160 -29 161 -50 5 -154 2 -159 -6z m101 -197 c5 -86 1 -103 -24 -93 -12 5
-14 18 -8 73 5 37 8 75 8 85 1 9 5 17 10 17 5 0 11 -37 14 -82z"/>
<path d="M2885 2961 c-3 -2 -5 -110 -5 -238 l0 -234 53 3 52 3 6 90 c3 50 6
78 7 63 1 -15 6 -29 11 -33 6 -3 13 -24 16 -48 10 -64 25 -79 77 -75 l43 3 0
235 0 235 -45 0 -45 0 -3 -93 c-3 -100 -16 -121 -27 -42 -4 28 -11 50 -16 50
-5 0 -9 8 -9 18 0 9 -6 28 -13 41 -10 20 -20 25 -55 26 -23 1 -45 -1 -47 -4z"/>
<path d="M3244 2955 c-5 -15 -24 -149 -60 -422 l-6 -43 61 0 61 0 0 45 c0 43
1 45 30 45 29 0 30 -2 30 -45 l0 -45 60 0 c68 0 67 -3 49 100 -9 52 -29 177
-47 302 -4 32 -11 60 -15 64 -11 11 -159 10 -163 -1z m100 -222 c1 -62 -1 -68
-19 -68 -16 0 -19 6 -17 25 2 14 6 49 9 79 7 75 26 50 27 -36z"/>
<path d="M3570 2960 c0 -5 -6 -10 -14 -10 -7 0 -22 -12 -32 -27 -17 -25 -19
-48 -19 -193 0 -144 2 -169 19 -196 31 -52 113 -65 158 -26 16 13 18 13 24 -2
4 -10 18 -16 40 -16 l34 0 0 125 0 125 -65 0 -65 0 2 -86 c2 -57 -1 -88 -8
-91 -17 -6 -24 46 -24 171 0 123 6 156 26 156 10 0 14 -14 14 -50 l0 -50 61 0
61 0 -4 60 c-4 53 -8 63 -38 90 -30 27 -40 30 -102 30 -39 0 -68 -4 -68 -10z"/>
<path d="M3834 2961 c-2 -2 -4 -109 -4 -238 l0 -234 103 3 102 3 3 48 3 47
-45 0 -46 0 0 45 c0 45 0 45 35 45 35 0 35 0 35 45 0 45 0 45 -35 45 -35 0
-35 0 -35 45 l0 45 41 0 40 0 -3 51 -3 52 -93 1 c-52 0 -96 -1 -98 -3z"/>
<path d="M4074 2961 c-2 -2 -4 -109 -4 -238 l0 -233 49 0 49 0 6 73 c4 39 7
97 9 127 l2 55 8 -50 c30 -197 30 -200 64 -203 28 -3 31 0 41 40 6 24 14 85
18 136 3 50 10 92 15 92 5 0 10 -60 11 -132 l3 -133 48 -3 47 -3 0 238 0 238
-72 -1 c-80 -1 -85 -5 -87 -84 -1 -19 -7 -53 -15 -74 l-14 -39 -5 39 c-3 21
-9 63 -13 92 -3 29 -11 55 -17 59 -11 7 -136 10 -143 4z"/>
<path d="M4504 2961 c-2 -2 -4 -109 -4 -238 l0 -234 103 3 102 3 3 48 3 47
-45 0 -46 0 0 45 0 45 40 0 40 0 0 45 0 45 -40 0 -40 0 0 45 0 45 41 0 40 0
-3 51 -3 52 -93 1 c-52 0 -96 -1 -98 -3z"/>
<path d="M4745 2961 c-3 -2 -5 -110 -5 -238 l0 -234 53 3 52 3 6 90 c3 50 6
78 7 63 1 -15 6 -29 11 -33 6 -3 13 -24 16 -48 10 -64 25 -79 77 -75 l43 3 0
235 0 235 -45 0 -45 0 -3 -93 c-3 -100 -16 -121 -27 -42 -4 28 -11 50 -16 50
-5 0 -9 8 -9 18 0 9 -6 28 -13 41 -10 20 -20 25 -55 26 -23 1 -45 -1 -47 -4z"/>
<path d="M1830 2805 c-188 -32 -376 -104 -482 -186 -165 -128 -288 -311 -356
-535 -31 -98 -66 -264 -58 -271 2 -3 26 2 53 11 26 8 66 20 88 25 22 6 72 19
110 30 39 10 121 32 184 47 62 16 115 33 116 39 2 5 13 44 26 85 29 99 98 256
137 314 18 26 32 51 32 55 0 4 10 19 23 33 12 13 34 42 50 64 15 22 68 82 118
132 l91 92 -13 32 c-12 31 -27 49 -39 47 -3 -1 -39 -7 -80 -14z"/>
<path d="M1964 2588 c-47 -50 -90 -102 -119 -142 -11 -16 -24 -33 -30 -40 -37
-42 -82 -117 -135 -226 -63 -128 -89 -208 -75 -230 4 -6 2 -17 -5 -25 -27 -33
-10 -214 30 -310 5 -11 18 -51 30 -90 21 -67 73 -217 90 -260 5 -11 11 -29 15
-40 5 -17 16 -10 78 55 94 98 152 168 207 250 8 12 20 28 25 34 17 18 92 163
123 236 25 60 38 108 57 206 28 150 12 318 -32 335 -43 16 -161 168 -197 252
-8 20 -17 37 -18 37 -2 0 -22 -19 -44 -42z"/>
</g>
</svg>
